PathFileType	4	(X/Y/Z)	TVC_12_BWA3_walk_RCNL2025.trc
DataRate	CameraRate	NumFrames	NumMarkers	Units	OrigDataRate	OrigDataStartFrame	OrigNumFrames
100	100	11	27	mm	100	1	354
Frame#	Time	R_Shoulder			L_Shoulder			C7			J_Notch			R_Elbow			L_Elbow			R_Wrist			L_Wrist			R_Asis			L_Asis			R_Psis			L_Psis			Sacral			Thoracic			Sternum			R_Thigh_Lateral			R_Knee_Lateral			R_Shank_Lateral			R_Ankle_Lateral			R_Heel			R_Toe			L_Thigh_Lateral			L_Knee_Lateral			L_Shank_Lateral			L_Ankle_Lateral			L_Heel			L_Toe		
		X1	Y1	Z1	X2	Y2	Z2	X3	Y3	Z3	X4	Y4	Z4	X5	Y5	Z5	X6	Y6	Z6	X7	Y7	Z7	X8	Y8	Z8	X9	Y9	Z9	X10	Y10	Z10	X11	Y11	Z11	X12	Y12	Z12	X13	Y13	Z13	X14	Y14	Z14	X15	Y15	Z15	X16	Y16	Z16	X17	Y17	Z17	X18	Y18	Z18	X19	Y19	Z19	X20	Y20	Z20	X21	Y21	Z21	X22	Y22	Z22	X23	Y23	Z23	X24	Y24	Z24	X25	Y25	Z25	X26	Y26	Z26	X27	Y27	Z27
1	0.00000000	-1938.570801	1327.768677	428.140594	-1915.478638	1333.171021	12.233346	-2031.103149	1407.751465	217.566467	-1887.652344	1280.845093	224.636917	-2077.772949	1015.342163	482.943542	-2080.190430	1039.718262	-78.587601	-2044.200684	767.268463	449.022476	-2049.789673	799.189087	-43.028741	-2008.873169	893.037292	386.285553	-1986.941650	910.578369	30.454584	-2173.163330	942.041077	261.391174	-2170.902344	954.987244	156.069977	-2172.032837	948.514160	208.730576	-2141.015137	1163.354004	203.235519	-1822.202393	1082.159058	216.111160	-1945.695557	606.636414	426.631805	-1898.857910	483.121613	381.551514	-1884.771606	274.381226	443.737671	-1826.750610	62.694389	400.010834	-1860.515381	42.904751	339.752930	-1694.761719	90.237114	392.545624	-2068.665039	615.197693	-20.448225	-2117.464111	468.237946	61.629791	-2179.632812	281.845581	18.472456	-2222.177002	70.197678	83.005150	-2267.698486	56.727833	135.661041	-2083.579346	38.391380	89.386398
2	0.01000000	-1932.574341	1324.666382	431.648865	-1910.156128	1332.019531	15.478080	-2025.141846	1405.847778	221.425095	-1881.272461	1279.373535	228.006577	-2071.357178	1011.903259	485.139221	-2073.969971	1038.429565	-75.940147	-2038.589844	763.864288	450.398117	-2043.548340	797.935577	-40.883102	-1999.396606	890.967896	385.950806	-1978.359741	908.868896	31.854574	-2165.126221	940.271667	263.313110	-2162.585449	952.326538	157.086151	-2163.855835	946.299103	210.199631	-2134.162842	1161.278442	205.834015	-1814.535645	1081.176514	219.123825	-1940.843018	602.740051	426.240906	-1892.204346	482.114532	382.963104	-1881.562866	271.654144	442.753693	-1822.914551	60.659252	401.059540	-1857.157837	43.551517	340.612701	-1689.869751	80.647560	393.658813	-2062.407715	614.278748	-19.219942	-2116.680420	468.270294	62.441387	-2177.323730	281.657166	19.628847	-2221.946045	70.197868	83.656693	-2267.447998	56.825096	136.387573	-2083.503906	38.337227	89.290871
3	0.02000000	-1926.577148	1321.861206	435.122589	-1904.672241	1331.064941	18.712418	-2019.135010	1404.170410	225.218750	-1874.853394	1278.143311	231.361343	-2064.875000	1008.743774	487.315033	-2067.759521	1037.346436	-73.185387	-2032.811584	760.742798	451.817932	-2037.333435	796.816132	-38.746225	-1990.230591	889.260437	385.890656	-1969.787964	907.367859	33.408768	-2157.185303	938.695251	265.121704	-2154.291504	949.944214	158.140198	-2155.738403	944.319733	211.630951	-2127.272949	1159.414917	208.372757	-1806.892944	1080.393066	222.179123	-1935.168579	599.851868	426.339661	-1885.003296	481.432800	384.548187	-1877.596558	269.488892	442.309967	-1819.432495	58.948662	401.958008	-1854.140747	44.244675	341.371521	-1685.485229	72.219772	394.573608	-2055.483887	613.174744	-17.786346	-2114.503418	468.089966	63.342300	-2174.693604	281.648560	20.659761	-2221.612061	70.464577	84.159904	-2267.142334	57.281322	136.932343	-2083.405273	38.297817	89.224091
4	0.03000000	-1920.579468	1319.353638	438.561798	-1899.027100	1330.307495	21.936489	-2013.082764	1402.719360	228.947403	-1868.395020	1277.154663	234.701172	-2058.326660	1005.864258	489.471039	-2061.557861	1036.469238	-70.323837	-2026.865967	757.904572	453.281769	-2031.143188	795.834503	-36.617777	-1981.374512	887.912109	386.107483	-1961.226318	906.075867	35.116718	-2149.339600	937.310120	266.817963	-2146.020020	947.839783	159.232925	-2147.679810	942.574951	213.025444	-2120.345703	1157.763184	210.852188	-1799.274170	1079.808838	225.276657	-1928.665649	597.966003	426.928314	-1877.260742	481.068909	386.303619	-1872.878052	267.874756	442.400543	-1816.303589	57.558220	402.704163	-1851.461914	44.978603	342.026459	-1681.611206	64.960838	395.290558	-2047.898438	611.905273	-16.146299	-2110.947510	467.704559	64.328255	-2171.743408	281.821075	21.563475	-2221.173340	70.998306	84.513733	-2266.781250	58.097027	137.294312	-2083.283203	38.273342	89.186455
5	0.04000000	-1914.581665	1317.145142	441.966461	-1893.221558	1329.748047	25.150650	-2006.986328	1401.493896	232.611145	-1861.897705	1276.406982	238.025940	-2051.712891	1003.266052	491.607697	-2055.363281	1035.798828	-67.356926	-2020.753296	755.350891	454.789169	-2024.972900	795.000671	-34.496775	-1972.827148	886.914612	386.607452	-1952.674805	904.994263	36.977112	-2141.585693	936.111633	268.404938	-2137.770996	946.012390	160.366531	-2139.678345	941.062012	214.385735	-2113.380615	1156.322388	213.273697	-1791.679688	1079.423950	228.415375	-1921.323853	597.058472	428.004089	-1868.994995	481.001923	388.220856	-1867.427979	266.782898	443.004883	-1813.524902	56.476799	403.293549	-1849.114868	45.740685	342.570526	-1678.252319	58.875973	395.811188	-2039.673096	610.518982	-14.299342	-2106.055908	467.134644	65.387604	-2168.476807	282.177917	22.335791	-2220.628662	71.800827	84.715752	-2266.363281	59.273342	137.471069	-2083.137451	38.264347	89.178833
6	0.05000000	-1908.584351	1315.237793	445.336731	-1887.257690	1329.388550	28.355589	-2000.847412	1400.493042	236.210205	-1855.362061	1275.899780	241.335434	-2045.035156	1000.951538	493.725952	-2049.171631	1035.336182	-64.287613	-2014.473877	753.084381	456.339172	-2018.815125	794.332581	-32.380725	-1964.584473	886.251404	387.401611	-1944.132935	904.125549	38.987270	-2133.916504	935.091309	269.889343	-2129.543945	944.459656	161.545547	-2131.730225	939.775482	215.717445	-2106.378418	1155.090820	215.640228	-1784.109619	1079.238647	231.593079	-1913.140991	597.067993	429.553650	-1860.244995	481.191833	390.283081	-1861.298096	266.160828	444.075745	-1811.089355	55.685158	403.720642	-1847.087646	46.512402	342.993317	-1675.408081	53.949192	396.139587	-2030.861206	609.096680	-12.255378	-2099.915039	466.419220	66.498489	-2164.898682	282.724060	22.970081	-2219.975342	72.875687	84.762253	-2265.885254	60.811954	137.458725	-2082.966553	38.272053	89.202507
7	0.06000000	-1902.588379	1313.635010	448.673035	-1881.139648	1329.231445	31.552357	-1994.669312	1399.714722	239.745163	-1848.789307	1275.631592	244.629395	-2038.295776	998.924011	495.827606	-2042.976562	1035.082275	-61.120914	-2008.028381	751.108673	457.930161	-2012.661804	793.854065	-30.264176	-1956.637573	885.895996	388.505096	-1935.600586	903.473022	41.142704	-2126.320557	934.237061	271.283600	-2121.338379	943.177734	162.777481	-2123.829468	938.707397	217.030540	-2099.338867	1154.066040	217.957108	-1776.564087	1079.253418	234.806168	-1904.142212	597.881042	431.543976	-1851.078369	481.578705	392.463837	-1854.588379	265.932587	445.531158	-1808.983154	55.156284	403.982086	-1845.361084	47.272495	343.284180	-1673.061523	50.124386	396.283630	-2021.554565	607.746887	-10.044667	-2092.667480	465.618225	67.628273	-2161.015869	283.465454	23.458591	-2219.210205	74.227882	84.649300	-2265.341309	62.714787	137.253265	-2082.768555	38.298752	89.258766
8	0.07000000	-1896.594971	1312.340332	451.976349	-1874.874756	1329.279541	34.742306	-1988.456299	1399.155640	243.217194	-1842.181519	1275.599976	247.907532	-2031.498291	997.187378	497.915710	-2036.768188	1035.037720	-57.864197	-2001.417847	749.428284	459.559830	-2006.508179	793.589172	-28.137063	-1948.971558	885.812256	389.934082	-1927.076782	903.040161	43.436882	-2118.781494	933.534973	272.607361	-2113.154297	942.160828	164.073044	-2115.967896	937.847900	218.340202	-2092.262939	1153.244263	220.232437	-1769.042603	1079.468628	238.049530	-1894.400879	599.329956	433.914917	-1841.594238	482.086884	394.726929	-1847.452026	266.004456	447.256744	-1807.183716	54.856693	404.079926	-1843.908447	48.000450	343.436279	-1671.171631	47.297562	396.254120	-2011.883301	606.593933	-7.723682	-2084.510010	464.808929	68.735939	-2156.836670	284.407806	23.794630	-2218.329346	75.862724	84.374702	-2264.722168	64.983337	136.853012	-2082.540527	38.347935	89.348083
9	0.08000000	-1890.605103	1311.357300	455.248260	-1868.473877	1329.536011	37.926918	-1982.213867	1398.811279	246.628159	-1835.541504	1275.801392	251.169647	-2024.647217	995.745361	499.994598	-2030.534180	1035.201660	-54.527252	-1994.643677	748.048004	461.225189	-2000.359497	793.556366	-25.982164	-1941.563354	885.956482	391.701782	-1918.560425	902.829956	45.861153	-2111.277832	932.971802	273.888641	-2104.991699	941.401489	165.445862	-2108.134766	937.186646	219.667252	-2085.151123	1152.620728	222.477448	-1761.544189	1079.884277	241.316589	-1884.053467	601.204163	436.578705	-1831.922607	482.632660	397.028351	-1840.082642	266.274475	449.118713	-1805.661133	54.748112	404.023499	-1842.696899	48.679333	343.449493	-1669.673462	45.322498	396.065308	-2002.015137	605.758606	-5.375255	-2075.677490	464.076996	69.777176	-2152.371094	285.555725	23.974939	-2217.325928	77.784569	83.940582	-2264.013672	67.617889	136.261978	-2082.277832	38.423737	89.468941
10	0.09000000	-1884.619507	1310.687988	458.491089	-1861.952148	1330.002808	41.107544	-1975.947876	1398.675903	249.980743	-1828.872314	1276.230469	254.415634	-2017.747681	994.601013	502.070160	-2024.260010	1035.571045	-51.122066	-1987.708008	746.972046	462.922775	-1994.236755	793.764618	-23.772878	-1934.381348	886.280884	393.813751	-1910.049927	902.844238	48.404846	-2103.785156	932.538086	275.163544	-2096.852051	940.891052	166.911652	-2100.318604	936.714569	221.037598	-2078.005127	1152.189575	224.706253	-1754.067139	1080.500000	244.599701	-1873.309326	603.265808	439.426025	-1822.217407	483.133759	399.319305	-1832.692017	266.642639	450.981415	-1804.379639	54.789536	403.829315	-1841.689697	49.297306	343.331573	-1668.486938	44.028046	395.737549	-1992.145142	605.335510	-3.099503	-2066.415527	463.503906	70.710609	-2147.628662	286.911652	24.001892	-2216.189941	79.996063	83.355850	-2263.195068	70.616844	135.493286	-2081.975586	38.529480	89.616318
11	0.10000000	-1878.637817	1310.332397	461.707733	-1855.327881	1330.680786	44.285088	-1969.664185	1398.742065	253.278442	-1822.177979	1276.880371	257.645477	-2010.805664	993.755493	504.149628	-2017.930542	1036.140625	-47.662319	-1980.613159	746.203339	464.648911	-1988.179382	794.209534	-21.473861	-1927.385498	886.737915	396.263977	-1901.544067	903.082886	51.055565	-2096.277832	932.230408	276.474701	-2088.738281	940.619751	168.486908	-2092.508057	936.425079	222.480804	-2070.826660	1151.944214	226.935318	-1746.608765	1081.314453	247.890594	-1862.450317	605.266296	442.335419	-1812.646606	483.518585	401.549896	-1825.487427	267.020569	452.723999	-1803.302124	54.939739	403.519714	-1840.849609	49.847786	343.097656	-1667.529907	43.239899	395.299500	-1982.466431	605.379395	-0.995457	-2056.947754	463.155060	71.503281	-2142.619385	288.475037	23.885002	-2214.906006	82.497528	82.637894	-2262.238525	73.976624	134.571945	-2081.626709	38.665478	89.779877
